<svg width="137" height="24" viewBox="0 0 137 24" fill="none" xmlns="http://www.w3.org/2000/svg">
<path fill-rule="evenodd" clip-rule="evenodd" d="M78.2495 7.05255C80.3864 7.05255 82.0256 8.13084 82.7072 9.11827V1.24283C82.707 1.19226 82.7167 1.14215 82.7358 1.09536C82.7548 1.04858 82.7829 1.00604 82.8184 0.970203C82.8539 0.934363 82.896 0.905923 82.9424 0.886518C82.9889 0.867113 83.0386 0.857117 83.0889 0.857117H86.5668C86.617 0.857117 86.6668 0.867113 86.7132 0.886518C86.7596 0.905923 86.8018 0.934363 86.8373 0.970203C86.8727 1.00604 86.9008 1.04858 86.9199 1.09536C86.939 1.14215 86.9487 1.19226 86.9485 1.24283V22.4331C86.9485 22.535 86.9082 22.6326 86.8367 22.7047C86.7651 22.7767 86.668 22.8171 86.5668 22.8171H83.2048C83.0728 22.8171 82.9462 22.7644 82.8529 22.6705C82.7596 22.5766 82.7072 22.4493 82.7072 22.3166V21.0891C82.0273 22.0765 80.3864 23.1566 78.2495 23.1566C74.1327 23.1566 70.9752 19.4777 70.9752 15.0994C70.9752 10.7211 74.1327 7.05255 78.2495 7.05255ZM75.2471 15.0994C75.2471 17.5046 76.825 19.2926 79.1475 19.2926C81.4718 19.2926 83.048 17.5046 83.048 15.0994C83.048 12.6943 81.4701 10.9063 79.1475 10.9063C76.825 10.9063 75.2471 12.6943 75.2471 15.0994ZM64.9906 16.5806V11.4754C64.9906 11.3736 65.0308 11.2759 65.1024 11.2039C65.174 11.1319 65.2711 11.0914 65.3723 11.0914H68.3509C68.4521 11.0914 68.5492 11.051 68.6208 10.9789C68.6924 10.9069 68.7326 10.8093 68.7326 10.7074V7.77599C68.7326 7.67415 68.6924 7.57647 68.6208 7.50445C68.5492 7.43244 68.4521 7.39197 68.3509 7.39197H65.3723C65.2711 7.39197 65.174 7.35153 65.1024 7.27951C65.0308 7.2075 64.9906 7.10982 64.9906 7.00797V3.48856C64.9902 3.38686 64.9498 3.28944 64.8783 3.21752C64.8068 3.14561 64.71 3.10501 64.6089 3.10456H61.131C61.0808 3.10456 61.031 3.11454 60.9846 3.13394C60.9381 3.15335 60.896 3.18179 60.8605 3.21763C60.8251 3.25347 60.797 3.296 60.7779 3.34279C60.7588 3.38958 60.7491 3.43971 60.7493 3.49028C60.7493 7.16399 60.6539 7.37828 58.1184 7.39028C57.9873 7.39073 57.8617 7.44317 57.7688 7.53626C57.676 7.62935 57.6234 7.75554 57.6225 7.8874V10.5943C57.6225 10.6597 57.6353 10.7245 57.6603 10.7849C57.6852 10.8453 57.7218 10.9002 57.7678 10.9464C57.8139 10.9926 57.8686 11.0292 57.9287 11.0541C57.9889 11.0789 58.0533 11.0916 58.1184 11.0914H60.3676C60.4689 11.0914 60.566 11.1319 60.6375 11.2039C60.7091 11.2759 60.7493 11.3736 60.7493 11.4754V17.412C60.7493 21.1834 63.3803 22.9937 66.6622 22.9937C67.4713 23.0116 68.2793 22.9252 69.0666 22.7365C69.149 22.7159 69.2221 22.668 69.2743 22.6005C69.3265 22.5331 69.3548 22.45 69.3545 22.3646V19.4383C69.3543 19.3798 69.3408 19.3222 69.3151 19.2697C69.2893 19.2173 69.252 19.1715 69.206 19.1358C69.16 19.1 69.1064 19.0754 69.0495 19.0636C68.9926 19.0519 68.9337 19.0534 68.8774 19.068C68.4654 19.1612 68.0439 19.2055 67.6216 19.2C65.7949 19.2 64.9906 18.4611 64.9906 16.5806ZM23.7743 15.0994C23.7743 10.536 27.2113 7.05255 31.9178 7.05255C35.975 7.05255 39.5329 9.64284 39.5397 14.6468C39.5397 14.9434 39.5397 15.2811 39.5074 15.7354C39.5009 15.8331 39.458 15.9246 39.3872 15.9917C39.3164 16.0588 39.2229 16.0965 39.1257 16.0971H27.8997C28.1468 18.1628 29.9718 19.3028 32.0166 19.3028C33.7547 19.3028 35.0616 18.5691 35.7995 17.652C35.8607 17.5781 35.9477 17.5304 36.0426 17.5186C36.1375 17.5068 36.2334 17.5318 36.3107 17.5886L38.8547 19.4743C38.8953 19.5041 38.9297 19.5418 38.9558 19.585C38.9819 19.6283 38.9993 19.6763 39.0069 19.7263C39.0145 19.7763 39.0122 19.8274 39.0001 19.8765C38.988 19.9256 38.9664 19.9718 38.9365 20.0125C37.4796 21.9051 35.065 23.1566 31.9791 23.1566C27.3664 23.1566 23.7743 19.9714 23.7743 15.0994ZM31.7968 10.5411C30.2138 10.5411 28.4501 11.3383 28.048 13.224H35.2951C34.9236 11.3983 33.3798 10.5411 31.7968 10.5411ZM51.6364 7.39198H55.726C55.7954 7.39163 55.8635 7.41033 55.9231 7.44603C55.9828 7.48173 56.0316 7.5331 56.0643 7.59463C56.0971 7.65615 56.1126 7.7255 56.1091 7.79521C56.1056 7.86492 56.0833 7.93236 56.0446 7.99028L51.3297 15.0326C51.2849 15.0969 51.2608 15.1735 51.2608 15.252C51.2608 15.3305 51.2849 15.4071 51.3297 15.4714L56.1435 22.2C56.1846 22.2574 56.2092 22.3251 56.2145 22.3956C56.2198 22.4662 56.2056 22.5368 56.1735 22.5998C56.1414 22.6627 56.0927 22.7155 56.0327 22.7524C55.9726 22.7892 55.9037 22.8087 55.8333 22.8086H51.7437C51.683 22.8084 51.6232 22.7938 51.5693 22.7657C51.5154 22.7377 51.4688 22.6972 51.4336 22.6474L48.3153 18.2451L45.1987 22.6474C45.1634 22.6972 45.1169 22.7377 45.063 22.7657C45.0091 22.7938 44.9493 22.8084 44.8885 22.8086H40.7666C40.6963 22.8087 40.6273 22.7892 40.5672 22.7524C40.5072 22.7155 40.4585 22.6627 40.4264 22.5998C40.3943 22.5368 40.3801 22.4662 40.3855 22.3956C40.3908 22.3251 40.4153 22.2574 40.4564 22.2L45.2771 15.4714C45.3212 15.4068 45.3448 15.3303 45.3448 15.252C45.3448 15.1736 45.3212 15.0971 45.2771 15.0326L40.5604 7.99028C40.5218 7.93248 40.4995 7.86519 40.4959 7.79563C40.4924 7.72607 40.5077 7.65685 40.5403 7.59538C40.5728 7.53391 40.6214 7.48251 40.6808 7.44668C40.7402 7.41085 40.8081 7.39194 40.8773 7.39198H44.9329C44.9956 7.39198 45.0575 7.40764 45.1128 7.43756C45.1681 7.46747 45.2152 7.51071 45.2498 7.56341L48.2846 12.1097L51.3194 7.56341C51.3541 7.51071 51.4012 7.46747 51.4565 7.43756C51.5118 7.40764 51.5736 7.39198 51.6364 7.39198ZM133.382 7.20684C131.649 7.20684 130.07 8.34683 129.543 9.85884V7.77599C129.543 7.67415 129.503 7.57647 129.431 7.50445C129.36 7.43244 129.263 7.39197 129.162 7.39197H125.685C125.635 7.39175 125.585 7.40153 125.539 7.42073C125.492 7.43992 125.45 7.46817 125.414 7.50385C125.379 7.53953 125.35 7.58193 125.331 7.62863C125.312 7.67533 125.302 7.72542 125.302 7.77599V22.4228C125.302 22.5248 125.343 22.6225 125.415 22.6945C125.487 22.7664 125.584 22.8068 125.685 22.8068H129.162C129.263 22.8068 129.36 22.7664 129.431 22.6944C129.503 22.6224 129.543 22.5247 129.543 22.4228V15.4371C129.543 12.9086 130.876 11.3365 132.888 11.3365C133.375 11.3369 133.859 11.402 134.328 11.5303C134.384 11.5455 134.443 11.5475 134.501 11.5362C134.558 11.5248 134.611 11.5004 134.658 11.4647C134.704 11.4291 134.742 11.3833 134.767 11.3307C134.793 11.2782 134.807 11.2203 134.807 11.1617V7.68856C134.806 7.59964 134.775 7.51361 134.719 7.44494C134.663 7.37627 134.585 7.32911 134.498 7.31141C134.131 7.23584 133.757 7.20077 133.382 7.20684ZM89.0545 15.0994C89.0545 10.5977 92.7062 7.05255 97.1962 7.05255C101.685 7.05255 105.338 10.5891 105.338 15.0994C105.338 19.6097 101.686 23.1566 97.1962 23.1566C92.7062 23.1566 89.0545 19.6011 89.0545 15.0994ZM93.3264 15.0994C93.3264 17.4737 94.9674 19.2 97.1962 19.2C99.425 19.2 101.034 17.4737 101.034 15.0994C101.034 12.7251 99.425 10.9988 97.1962 10.9988C94.9674 10.9988 93.3264 12.7251 93.3264 15.0994ZM115.056 7.05255C110.568 7.05255 106.914 10.5977 106.914 15.0994C106.914 19.6011 110.568 23.1566 115.056 23.1566C119.544 23.1566 123.198 19.6097 123.198 15.0994C123.198 10.5891 119.544 7.05255 115.056 7.05255ZM115.056 19.2C112.827 19.2 111.186 17.4737 111.186 15.0994C111.186 12.7251 112.827 10.9988 115.056 10.9988C117.285 10.9988 118.895 12.7251 118.895 15.0994C118.895 17.4737 117.285 19.2 115.056 19.2ZM7.20971 10.1983C8.57291 8.18226 11.0045 6.8657 13.8553 6.8657C18.2653 6.8657 21.6699 10.0166 21.6699 14.0228V22.4228C21.6699 22.5247 21.6296 22.6223 21.5581 22.6944C21.4865 22.7664 21.3894 22.8068 21.2882 22.8068H17.7813C17.6801 22.8068 17.583 22.7664 17.5114 22.6944C17.4398 22.6223 17.3996 22.5247 17.3996 22.4228V14.6074C17.3996 12.8708 16.0705 10.9011 13.8553 10.9011C11.5345 10.9011 10.311 12.8708 10.311 14.6074V22.4211C10.3105 22.5231 10.2699 22.6208 10.1981 22.6928C10.1262 22.7647 10.029 22.8051 9.92759 22.8051H6.42075C6.37071 22.8053 6.32112 22.7956 6.27482 22.7765C6.22852 22.7574 6.18642 22.7293 6.15096 22.6938C6.11549 22.6583 6.08735 22.616 6.06815 22.5695C6.04894 22.523 6.03906 22.4732 6.03906 22.4228V14.8611C6.03792 14.7503 6.00037 14.6429 5.93226 14.5558C5.86414 14.4687 5.76928 14.4066 5.66247 14.3794C2.57823 13.536 1.44167 11.1823 1.36328 7.81199C1.36237 7.76084 1.37163 7.71003 1.39051 7.66253C1.40939 7.61503 1.43752 7.57181 1.47323 7.5354C1.50895 7.49899 1.55154 7.47013 1.59849 7.4505C1.64545 7.43088 1.69583 7.42089 1.74668 7.42112H4.51398V7.43998H5.35064C5.44918 7.44117 5.54355 7.48017 5.61448 7.54898C5.68542 7.6178 5.72757 7.71125 5.73234 7.81027C5.77153 9.18856 6.04758 9.92913 6.69851 10.3234C6.78341 10.3725 6.88381 10.3869 6.97896 10.3636C7.07411 10.3403 7.15672 10.2811 7.20971 10.1983Z" fill="white"/>
</svg>
